<?xml version="1.0" encoding="UTF-8"?>
<svg id="Layer_1" xmlns="http://www.w3.org/2000/svg" version="1.1" viewBox="0 0 32 32">
  <!-- Generator: Adobe Illustrator 30.0.0, SVG Export Plug-In . SVG Version: 2.1.1 Build 123)  -->
  <defs>
    <style>
      .st0 {
        fill: #fff;
      }
    </style>
  </defs>
  <path d="M4.8,20.7c-2.5.2-4,.4-4.5.5l1.9-7.7c.3-1,1.2-1.8,2.3-1.8h5.5c.1,0,.2,0,.2.2v8.6c-1.7,0-3.2,0-4.4,0v-3.7c0-.2-.2-.2-.3,0l-.8,3.8ZM21,21.2v-6.7c0-.5-.4-.9-.9-1l-4.1-.4c-.2,0-.2-.3,0-.3l4.7-.5c.1,0,.2-.1.2-.2v-3.5l-8.3.9c-1.1.1-1.9,1-1.9,2.1v3.8c0,.4.3.6.6.7l4.3.4c.2,0,.2.3,0,.3l-4.7.5c-.1,0-.2.1-.2.2v2.9c.8,0,1.6,0,2.5.1,2.9.2,5.5.4,7.6.5ZM31.7,12c0-.1,0-.3-.2-.3h-4c-.1,0-.2,0-.2.2l-1,4.8c0,.2-.3.1-.3,0v-4.7c0-.1,0-.2-.2-.2h-4c-.1,0-.2,0-.2.2v9.3c3.6.2,6.2,0,7.9-.7,0-.1.1-.3.2-.4l2-8.1Z"/>
  <path class="st0" d="M2.5,13.6c.2-.9,1-1.5,1.9-1.5h5.4v8.1c-.4,0-.8,0-1.2,0-.9,0-1.7,0-2.5,0v-3.3c0-.3-.2-.5-.5-.5s-.4.2-.5.4l-.7,3.5c-1.7.1-3,.3-3.7.4l1.8-7.2ZM20.7,14.5c0-.3-.2-.6-.6-.6l-4.1-.4c-.3,0-.4-.2-.4-.5s.2-.5.4-.5l4.6-.5v-3l-7.9.9c-.9.1-1.6.9-1.6,1.8v3.8c0,.2.1.3.3.3l4.3.4c.3,0,.4.2.4.5s-.2.5-.4.5l-4.6.5v2.5c.7,0,1.5,0,2.2.1.8,0,1.5.1,2.2.1,1.9.1,3.5.2,5,.3v-6.3ZM24.2,21c2.3,0,3.9-.2,5.1-.7,0,0,0-.2,0-.3l2-7.9h-3.7l-.9,4.7c0,.2-.2.4-.5.4s-.2,0-.3-.1c-.1,0-.2-.2-.2-.4v-4.6h-3.7v8.8c.8,0,1.6,0,2.2,0h0Z"/>
</svg>